<?xml version="1.0" encoding="UTF-8"?>
<!DOCTYPE svg PUBLIC "-//W3C//DTD SVG 1.1//EN" "http://www.w3.org/Graphics/SVG/1.1/DTD/svg11.dtd">
<svg xmlns="http://www.w3.org/2000/svg" version="1.1" width="455px" height="440px" style="shape-rendering:geometricPrecision; text-rendering:geometricPrecision; image-rendering:optimizeQuality; fill-rule:evenodd; clip-rule:evenodd" xmlns:xlink="http://www.w3.org/1999/xlink">
<g><path style="opacity:0.991" fill="#402f66" d="M 228.5,94.5 C 225.569,96.2481 222.736,98.2481 220,100.5C 218.277,103.551 216.777,106.718 215.5,110C 206.5,110.333 197.5,110.667 188.5,111C 187.667,111.833 186.833,112.667 186,113.5C 185.333,120.5 185.333,127.5 186,134.5C 201.427,135.163 216.927,135.496 232.5,135.5C 248.073,135.496 263.573,135.163 279,134.5C 279.667,127.5 279.667,120.5 279,113.5C 278.167,112.667 277.333,111.833 276.5,111C 267.5,110.667 258.5,110.333 249.5,110C 247.758,102.096 243.092,96.9291 235.5,94.5C 242.673,92.666 247.673,94.9994 250.5,101.5C 251.038,103.117 251.371,104.784 251.5,106.5C 253.415,106.784 255.081,106.451 256.5,105.5C 262.842,105.334 269.175,105.5 275.5,106C 279.524,106.526 282.191,108.693 283.5,112.5C 294.151,113.332 304.818,113.832 315.5,114C 318.817,115.48 320.817,117.98 321.5,121.5C 321.667,137.503 321.5,153.503 321,169.5C 320.617,170.056 320.117,170.389 319.5,170.5C 317.966,153.773 316.8,136.773 316,119.5C 315.25,118.874 314.416,118.374 313.5,118C 303.506,117.5 293.506,117.334 283.5,117.5C 283.5,120.833 283.5,124.167 283.5,127.5C 289.842,127.334 296.175,127.5 302.5,128C 304.286,128.785 305.786,129.951 307,131.5C 307.667,192.167 307.667,252.833 307,313.5C 306.167,315.667 304.667,317.167 302.5,318C 255.5,318.667 208.5,318.667 161.5,318C 159.951,316.786 158.785,315.286 158,313.5C 157.333,252.833 157.333,192.167 158,131.5C 159.167,130.333 160.333,129.167 161.5,128C 168.158,127.5 174.825,127.334 181.5,127.5C 181.5,124.167 181.5,120.833 181.5,117.5C 171.494,117.334 161.494,117.5 151.5,118C 149.667,118.5 148.5,119.667 148,121.5C 147.333,189.167 147.333,256.833 148,324.5C 149.167,325.667 150.333,326.833 151.5,328C 205.5,328.667 259.5,328.667 313.5,328C 314.667,326.833 315.833,325.667 317,324.5C 317.333,281.5 317.667,238.5 318,195.5C 318.383,194.944 318.883,194.611 319.5,194.5C 320.823,216.117 321.489,237.951 321.5,260C 321.333,281.5 321.167,303 321,324.5C 319.833,328.333 317.333,330.833 313.5,332C 259.501,332.5 205.501,332.667 151.5,332.5C 147.98,331.817 145.48,329.817 144,326.5C 143.333,257.5 143.333,188.5 144,119.5C 145.167,117 147,115.167 149.5,114C 160.182,113.832 170.849,113.332 181.5,112.5C 182.809,108.693 185.476,106.526 189.5,106C 197.167,105.667 204.833,105.333 212.5,105C 214.838,96.8152 220.171,93.3152 228.5,94.5 Z"/></g>
<g><path style="opacity:1" fill="#0187ec" d="M 228.5,94.5 C 230.833,94.5 233.167,94.5 235.5,94.5C 243.092,96.9291 247.758,102.096 249.5,110C 258.5,110.333 267.5,110.667 276.5,111C 277.333,111.833 278.167,112.667 279,113.5C 279.667,120.5 279.667,127.5 279,134.5C 263.573,135.163 248.073,135.496 232.5,135.5C 216.927,135.496 201.427,135.163 186,134.5C 185.333,127.5 185.333,120.5 186,113.5C 186.833,112.667 187.667,111.833 188.5,111C 197.5,110.667 206.5,110.333 215.5,110C 216.777,106.718 218.277,103.551 220,100.5C 222.736,98.2481 225.569,96.2481 228.5,94.5 Z"/></g>
<g><path style="opacity:0.967" fill="#d6d5db" d="M 250.5,101.5 C 252.754,102.415 254.754,103.748 256.5,105.5C 255.081,106.451 253.415,106.784 251.5,106.5C 251.371,104.784 251.038,103.117 250.5,101.5 Z"/></g>
<g><path style="opacity:1" fill="#392f66" d="M 230.5,102.5 C 237.514,103.005 240.68,106.672 240,113.5C 237.459,118.069 233.625,119.569 228.5,118C 222.706,111.94 223.372,106.774 230.5,102.5 Z"/></g>
<g><path style="opacity:1" fill="#7c0ec7" d="M 230.5,106.5 C 236.488,106.664 237.821,109.164 234.5,114C 228.413,114.205 227.079,111.705 230.5,106.5 Z"/></g>
<g><path style="opacity:1" fill="#800ccd" d="M 319.5,170.5 C 319.5,171.833 319.5,173.167 319.5,174.5C 318.186,176.915 317.519,179.748 317.5,183C 317.519,186.252 318.186,189.085 319.5,191.5C 319.5,192.5 319.5,193.5 319.5,194.5C 318.883,194.611 318.383,194.944 318,195.5C 317.667,238.5 317.333,281.5 317,324.5C 315.833,325.667 314.667,326.833 313.5,328C 259.5,328.667 205.5,328.667 151.5,328C 150.333,326.833 149.167,325.667 148,324.5C 147.333,256.833 147.333,189.167 148,121.5C 148.5,119.667 149.667,118.5 151.5,118C 161.494,117.5 171.494,117.334 181.5,117.5C 181.5,120.833 181.5,124.167 181.5,127.5C 174.825,127.334 168.158,127.5 161.5,128C 160.333,129.167 159.167,130.333 158,131.5C 157.333,192.167 157.333,252.833 158,313.5C 158.785,315.286 159.951,316.786 161.5,318C 208.5,318.667 255.5,318.667 302.5,318C 304.667,317.167 306.167,315.667 307,313.5C 307.667,252.833 307.667,192.167 307,131.5C 305.786,129.951 304.286,128.785 302.5,128C 296.175,127.5 289.842,127.334 283.5,127.5C 283.5,124.167 283.5,120.833 283.5,117.5C 293.506,117.334 303.506,117.5 313.5,118C 314.416,118.374 315.25,118.874 316,119.5C 316.8,136.773 317.966,153.773 319.5,170.5 Z"/></g>
<g><path style="opacity:0.963" fill="#e5e6e7" d="M 321.5,121.5 C 328.563,123.95 331.23,128.95 329.5,136.5C 328.418,147.472 327.751,158.472 327.5,169.5C 328.606,200.989 329.273,232.489 329.5,264C 329.658,288.252 329.158,312.419 328,336.5C 326.786,338.049 325.286,339.215 323.5,340C 268.167,340.667 212.833,340.667 157.5,340C 154.183,338.52 152.183,336.02 151.5,332.5C 205.501,332.667 259.501,332.5 313.5,332C 317.333,330.833 319.833,328.333 321,324.5C 321.167,303 321.333,281.5 321.5,260C 321.489,237.951 320.823,216.117 319.5,194.5C 319.5,193.5 319.5,192.5 319.5,191.5C 320.117,191.389 320.617,191.056 321,190.5C 321.667,185.5 321.667,180.5 321,175.5C 320.617,174.944 320.117,174.611 319.5,174.5C 319.5,173.167 319.5,171.833 319.5,170.5C 320.117,170.389 320.617,170.056 321,169.5C 321.5,153.503 321.667,137.503 321.5,121.5 Z"/></g>
<g><path style="opacity:1" fill="#cdf2f8" d="M 162.5,131.5 C 168.833,131.5 175.167,131.5 181.5,131.5C 181.146,134.961 182.479,137.461 185.5,139C 216.833,139.667 248.167,139.667 279.5,139C 282.521,137.461 283.854,134.961 283.5,131.5C 290.09,131.189 296.59,131.522 303,132.5C 303.667,192.833 303.667,253.167 303,313.5C 279.571,314.164 256.071,314.498 232.5,314.5C 208.929,314.498 185.429,314.164 162,313.5C 161.171,252.763 161.338,192.096 162.5,131.5 Z"/></g>
<g><path style="opacity:1" fill="#403266" d="M 203.5,153.5 C 205.252,153.418 206.252,154.251 206.5,156C 205.392,158.112 203.892,159.946 202,161.5C 201.667,167.167 201.333,172.833 201,178.5C 200.097,179.701 198.931,180.535 197.5,181C 190.724,181.92 184.057,181.586 177.5,180C 176.874,179.25 176.374,178.416 176,177.5C 175.076,170.392 175.409,163.392 177,156.5C 177.75,155.874 178.584,155.374 179.5,155C 182.5,154.833 185.5,154.667 188.5,154.5C 192.691,154.284 196.691,154.95 200.5,156.5C 201.855,155.812 202.855,154.812 203.5,153.5 Z"/></g>
<g><path style="opacity:1" fill="#3a2c60" d="M 213.5,158.5 C 238.833,158.5 264.167,158.5 289.5,158.5C 289.5,159.5 289.5,160.5 289.5,161.5C 264.167,161.5 238.833,161.5 213.5,161.5C 213.5,160.5 213.5,159.5 213.5,158.5 Z"/></g>
<g><path style="opacity:1" fill="#7c0ec7" d="M 180.5,158.5 C 186.167,158.5 191.833,158.5 197.5,158.5C 195.711,162.812 192.877,166.479 189,169.5C 186.855,166.834 184.355,164.834 181.5,163.5C 182.515,168.208 185.182,171.875 189.5,174.5C 192.527,172.14 195.194,169.473 197.5,166.5C 198.791,170.045 198.791,173.545 197.5,177C 191.833,177.667 186.167,177.667 180.5,177C 179.186,170.834 179.186,164.667 180.5,158.5 Z"/></g>
<g><path style="opacity:1" fill="#3a2c60" d="M 213.5,174.5 C 238.833,174.5 264.167,174.5 289.5,174.5C 289.5,175.5 289.5,176.5 289.5,177.5C 264.167,177.5 238.833,177.5 213.5,177.5C 213.5,176.5 213.5,175.5 213.5,174.5 Z"/></g>
<g><path style="opacity:1" fill="#453768" d="M 319.5,174.5 C 320.117,174.611 320.617,174.944 321,175.5C 321.667,180.5 321.667,185.5 321,190.5C 320.617,191.056 320.117,191.389 319.5,191.5C 318.186,189.085 317.519,186.252 317.5,183C 317.519,179.748 318.186,176.915 319.5,174.5 Z"/></g>
<g><path style="opacity:1" fill="#403266" d="M 203.5,193.5 C 205.252,193.418 206.252,194.251 206.5,196C 205.392,198.112 203.892,199.946 202,201.5C 201.667,207.167 201.333,212.833 201,218.5C 200.097,219.701 198.931,220.535 197.5,221C 190.724,221.92 184.057,221.586 177.5,220C 176.874,219.25 176.374,218.416 176,217.5C 175.076,210.392 175.409,203.392 177,196.5C 177.75,195.874 178.584,195.374 179.5,195C 182.5,194.833 185.5,194.667 188.5,194.5C 192.691,194.284 196.691,194.95 200.5,196.5C 201.855,195.812 202.855,194.812 203.5,193.5 Z"/></g>
<g><path style="opacity:1" fill="#3a2c60" d="M 213.5,198.5 C 238.833,198.5 264.167,198.5 289.5,198.5C 289.5,199.5 289.5,200.5 289.5,201.5C 264.167,201.5 238.833,201.5 213.5,201.5C 213.5,200.5 213.5,199.5 213.5,198.5 Z"/></g>
<g><path style="opacity:1" fill="#7c0ec7" d="M 180.5,198.5 C 186.167,198.5 191.833,198.5 197.5,198.5C 195.711,202.812 192.877,206.479 189,209.5C 186.855,206.834 184.355,204.834 181.5,203.5C 182.515,208.208 185.182,211.875 189.5,214.5C 192.527,212.14 195.194,209.473 197.5,206.5C 198.791,210.045 198.791,213.545 197.5,217C 191.833,217.667 186.167,217.667 180.5,217C 179.186,210.834 179.186,204.667 180.5,198.5 Z"/></g>
<g><path style="opacity:1" fill="#3a2c60" d="M 213.5,214.5 C 238.833,214.5 264.167,214.5 289.5,214.5C 289.5,215.5 289.5,216.5 289.5,217.5C 264.167,217.5 238.833,217.5 213.5,217.5C 213.5,216.5 213.5,215.5 213.5,214.5 Z"/></g>
<g><path style="opacity:1" fill="#3f3266" d="M 203.5,233.5 C 205.252,233.418 206.252,234.251 206.5,236C 205.392,238.112 203.892,239.946 202,241.5C 201.667,247.167 201.333,252.833 201,258.5C 200.097,259.701 198.931,260.535 197.5,261C 190.724,261.92 184.057,261.586 177.5,260C 176.874,259.25 176.374,258.416 176,257.5C 175.076,250.392 175.409,243.392 177,236.5C 177.75,235.874 178.584,235.374 179.5,235C 182.5,234.833 185.5,234.667 188.5,234.5C 192.691,234.284 196.691,234.95 200.5,236.5C 201.855,235.812 202.855,234.812 203.5,233.5 Z"/></g>
<g><path style="opacity:1" fill="#3a2c60" d="M 213.5,238.5 C 238.833,238.5 264.167,238.5 289.5,238.5C 289.5,239.5 289.5,240.5 289.5,241.5C 264.167,241.5 238.833,241.5 213.5,241.5C 213.5,240.5 213.5,239.5 213.5,238.5 Z"/></g>
<g><path style="opacity:1" fill="#7c0ec7" d="M 180.5,238.5 C 186.167,238.5 191.833,238.5 197.5,238.5C 195.711,242.812 192.877,246.479 189,249.5C 186.855,246.834 184.355,244.834 181.5,243.5C 182.515,248.208 185.182,251.875 189.5,254.5C 192.527,252.14 195.194,249.473 197.5,246.5C 198.791,250.045 198.791,253.545 197.5,257C 191.833,257.667 186.167,257.667 180.5,257C 179.186,250.834 179.186,244.667 180.5,238.5 Z"/></g>
<g><path style="opacity:1" fill="#3a2c60" d="M 213.5,254.5 C 238.833,254.5 264.167,254.5 289.5,254.5C 289.5,255.5 289.5,256.5 289.5,257.5C 264.167,257.5 238.833,257.5 213.5,257.5C 213.5,256.5 213.5,255.5 213.5,254.5 Z"/></g>
<g><path style="opacity:1" fill="#3f3365" d="M 179.5,274.5 C 185.509,274.334 191.509,274.501 197.5,275C 198.931,275.465 200.097,276.299 201,277.5C 201.667,284.5 201.667,291.5 201,298.5C 200.5,299 200,299.5 199.5,300C 192.943,301.586 186.276,301.92 179.5,301C 178.584,300.626 177.75,300.126 177,299.5C 175.409,292.608 175.076,285.608 176,278.5C 176.69,276.65 177.856,275.316 179.5,274.5 Z"/></g>
<g><path style="opacity:1" fill="#3a2c60" d="M 213.5,278.5 C 238.833,278.5 264.167,278.5 289.5,278.5C 289.5,279.5 289.5,280.5 289.5,281.5C 264.167,281.5 238.833,281.5 213.5,281.5C 213.5,280.5 213.5,279.5 213.5,278.5 Z"/></g>
<g><path style="opacity:1" fill="#ccf0f7" d="M 180.5,278.5 C 186.425,278.192 192.259,278.525 198,279.5C 198.807,285.416 198.641,291.25 197.5,297C 191.584,297.807 185.75,297.641 180,296.5C 179.212,290.418 179.379,284.418 180.5,278.5 Z"/></g>
<g><path style="opacity:1" fill="#3a2c60" d="M 213.5,294.5 C 238.833,294.5 264.167,294.5 289.5,294.5C 289.5,295.5 289.5,296.5 289.5,297.5C 264.167,297.5 238.833,297.5 213.5,297.5C 213.5,296.5 213.5,295.5 213.5,294.5 Z"/></g>
</svg>
