<?xml version="1.0" encoding="UTF-8"?>
<!DOCTYPE svg PUBLIC "-//W3C//DTD SVG 1.1//EN" "http://www.w3.org/Graphics/SVG/1.1/DTD/svg11.dtd">
<svg xmlns="http://www.w3.org/2000/svg" version="1.1" width="216px" height="207px" style="shape-rendering:geometricPrecision; text-rendering:geometricPrecision; image-rendering:optimizeQuality; fill-rule:evenodd; clip-rule:evenodd" xmlns:xlink="http://www.w3.org/1999/xlink">
<g><path style="opacity:0.102" fill="#d8dce2" d="M 117.5,46.5 C 119.027,46.427 120.027,47.0937 120.5,48.5C 118.821,48.7148 117.821,48.0481 117.5,46.5 Z"/></g>
<g><path style="opacity:0.997" fill="#dbdbdf" d="M 153.5,56.5 C 155.411,56.5743 156.578,57.5743 157,59.5C 157.986,94.585 157.653,129.585 156,164.5C 155.25,165.126 154.416,165.626 153.5,166C 126.167,166.667 98.8333,166.667 71.5,166C 69.3563,165.208 68.023,163.708 67.5,161.5C 95.1687,161.667 122.835,161.5 150.5,161C 151,160.5 151.5,160 152,159.5C 152.168,124.998 152.668,90.6642 153.5,56.5 Z"/></g>
<g><path style="opacity:1" fill="#46356e" d="M 117.5,46.5 C 117.821,48.0481 118.821,48.7148 120.5,48.5C 124.182,48.3347 127.848,48.5014 131.5,49C 132.5,50 133.5,51 134.5,52C 140.167,52.3333 145.833,52.6667 151.5,53C 152.305,54.1127 152.972,55.2794 153.5,56.5C 152.668,90.6642 152.168,124.998 152,159.5C 151.5,160 151,160.5 150.5,161C 122.835,161.5 95.1687,161.667 67.5,161.5C 65.5891,161.426 64.4224,160.426 64,158.5C 63.3333,124.167 63.3333,89.8333 64,55.5C 64.3742,54.5838 64.8742,53.7504 65.5,53C 71.1667,52.6667 76.8333,52.3333 82.5,52C 83.5,51 84.5,50 85.5,49C 89.8711,48.8275 94.2044,48.3275 98.5,47.5C 102.597,40.2586 108.264,38.7586 115.5,43C 116.823,43.8159 117.489,44.9826 117.5,46.5 Z"/></g>
<g><path style="opacity:1" fill="#7e0dca" d="M 67.5,54.5 C 72.8333,54.5 78.1667,54.5 83.5,54.5C 83.5,56.1667 83.5,57.8333 83.5,59.5C 79.5633,59.2065 75.73,59.5399 72,60.5C 71.3333,91.5 71.3333,122.5 72,153.5C 84.0931,154.162 96.2598,154.495 108.5,154.5C 120.74,154.495 132.907,154.162 145,153.5C 145.667,122.5 145.667,91.5 145,60.5C 141.27,59.5399 137.437,59.2065 133.5,59.5C 133.5,57.8333 133.5,56.1667 133.5,54.5C 139.093,54.1934 144.593,54.5268 150,55.5C 150.208,64.3683 150.708,73.2016 151.5,82C 150.786,107.372 150.286,132.872 150,158.5C 136.24,159.162 122.406,159.496 108.5,159.5C 94.5937,159.496 80.7603,159.162 67,158.5C 66.1742,123.762 66.3408,89.0952 67.5,54.5 Z"/></g>
<g><path style="opacity:1" fill="#0584e7" d="M 104.5,43.5 C 110.345,42.0389 114.345,44.0389 116.5,49.5C 121.132,50.3283 125.798,50.8283 130.5,51C 131,51.5 131.5,52 132,52.5C 132.499,56.1516 132.665,59.8183 132.5,63.5C 116.5,63.5 100.5,63.5 84.5,63.5C 84.3347,59.8183 84.5014,56.1516 85,52.5C 85.5,52 86,51.5 86.5,51C 91.1548,50.5008 95.8215,50.3342 100.5,50.5C 100.961,47.6967 102.295,45.3634 104.5,43.5 Z"/></g>
<g><path style="opacity:1" fill="#3a306a" d="M 106.5,47.5 C 111.486,47.3049 113.152,49.4716 111.5,54C 104.561,55.5741 102.894,53.4074 106.5,47.5 Z"/></g>
<g><path style="opacity:1" fill="#7a10c3" d="M 106.5,49.5 C 107.833,49.5 109.167,49.5 110.5,49.5C 110.778,51.3464 110.111,52.6798 108.5,53.5C 106.889,52.6798 106.222,51.3464 106.5,49.5 Z"/></g>
<g><path style="opacity:1" fill="#d2f8fd" d="M 73.5,61.5 C 76.8333,61.5 80.1667,61.5 83.5,61.5C 83.33,62.8221 83.6634,63.9887 84.5,65C 100.5,65.6667 116.5,65.6667 132.5,65C 133.337,63.9887 133.67,62.8221 133.5,61.5C 136.833,61.5 140.167,61.5 143.5,61.5C 143.5,91.8333 143.5,122.167 143.5,152.5C 120.167,152.5 96.8333,152.5 73.5,152.5C 73.5,122.167 73.5,91.8333 73.5,61.5 Z"/></g>
<g><path style="opacity:1" fill="#43366a" d="M 93.5,72.5 C 95.9732,72.9473 96.1399,73.9473 94,75.5C 95.19,85.9749 90.8566,89.3082 81,85.5C 80.5012,81.5138 80.3345,77.5138 80.5,73.5C 85.0323,73.8182 89.3656,73.4849 93.5,72.5 Z"/></g>
<g><path style="opacity:1" fill="#44396a" d="M 99.5,74.5 C 111.851,74.1676 124.185,74.501 136.5,75.5C 130.333,75.8333 124.167,76.1667 118,76.5C 111.462,76.4962 105.295,75.8296 99.5,74.5 Z"/></g>
<g><path style="opacity:1" fill="#7214b7" d="M 82.5,74.5 C 85.7216,74.1081 88.7216,74.6081 91.5,76C 90,77.5 88.5,79 87,80.5C 86,79.5 85,78.5 84,77.5C 83.2765,80.1249 84.2765,81.7916 87,82.5C 88.584,82.0116 89.7506,81.0116 90.5,79.5C 91.4519,81.0453 91.7852,82.712 91.5,84.5C 88.1667,84.5 84.8333,84.5 81.5,84.5C 81.2529,81.0613 81.5863,77.728 82.5,74.5 Z"/></g>
<g><path style="opacity:1" fill="#44396a" d="M 136.5,84.5 C 123.989,84.8286 111.655,84.4952 99.5,83.5C 105.491,82.8338 111.657,82.5004 118,82.5C 124.538,82.5038 130.705,83.1704 136.5,84.5 Z"/></g>
<g><path style="opacity:1" fill="#b6d2df" d="M 99.5,83.5 C 111.655,84.4952 123.989,84.8286 136.5,84.5C 123.994,85.825 111.327,85.825 98.5,84.5C 98.6236,83.8933 98.9569,83.56 99.5,83.5 Z"/></g>
<g><path style="opacity:1" fill="#43366a" d="M 93.5,92.5 C 95.9732,92.9473 96.1399,93.9473 94,95.5C 95.19,105.975 90.8566,109.308 81,105.5C 80.5012,101.514 80.3345,97.5138 80.5,93.5C 85.0323,93.8182 89.3656,93.4849 93.5,92.5 Z"/></g>
<g><path style="opacity:1" fill="#44396a" d="M 136.5,96.5 C 123.989,96.8286 111.655,96.4952 99.5,95.5C 105.491,94.8338 111.657,94.5004 118,94.5C 124.538,94.5038 130.705,95.1704 136.5,96.5 Z"/></g>
<g><path style="opacity:1" fill="#b6d2df" d="M 99.5,95.5 C 111.655,96.4952 123.989,96.8286 136.5,96.5C 123.994,97.825 111.327,97.825 98.5,96.5C 98.6236,95.8933 98.9569,95.56 99.5,95.5 Z"/></g>
<g><path style="opacity:1" fill="#7214b7" d="M 82.5,94.5 C 85.7216,94.1081 88.7216,94.6081 91.5,96C 90,97.5 88.5,99 87,100.5C 86,99.5 85,98.5 84,97.5C 83.2765,100.125 84.2765,101.792 87,102.5C 88.584,102.012 89.7506,101.012 90.5,99.5C 91.4519,101.045 91.7852,102.712 91.5,104.5C 88.1667,104.5 84.8333,104.5 81.5,104.5C 81.2529,101.061 81.5863,97.728 82.5,94.5 Z"/></g>
<g><path style="opacity:1" fill="#44396a" d="M 136.5,104.5 C 123.989,104.829 111.655,104.495 99.5,103.5C 105.491,102.834 111.657,102.5 118,102.5C 124.538,102.504 130.705,103.17 136.5,104.5 Z"/></g>
<g><path style="opacity:1" fill="#b6d2df" d="M 99.5,103.5 C 111.655,104.495 123.989,104.829 136.5,104.5C 123.994,105.825 111.327,105.825 98.5,104.5C 98.6236,103.893 98.9569,103.56 99.5,103.5 Z"/></g>
<g><path style="opacity:1" fill="#43366a" d="M 93.5,112.5 C 95.9732,112.947 96.1399,113.947 94,115.5C 95.19,125.975 90.8566,129.308 81,125.5C 80.5012,121.514 80.3345,117.514 80.5,113.5C 85.0323,113.818 89.3656,113.485 93.5,112.5 Z"/></g>
<g><path style="opacity:1" fill="#44396a" d="M 136.5,116.5 C 123.989,116.829 111.655,116.495 99.5,115.5C 105.491,114.834 111.657,114.5 118,114.5C 124.538,114.504 130.705,115.17 136.5,116.5 Z"/></g>
<g><path style="opacity:1" fill="#b6d2df" d="M 99.5,115.5 C 111.655,116.495 123.989,116.829 136.5,116.5C 123.994,117.825 111.327,117.825 98.5,116.5C 98.6236,115.893 98.9569,115.56 99.5,115.5 Z"/></g>
<g><path style="opacity:1" fill="#7214b8" d="M 82.5,114.5 C 85.7216,114.108 88.7216,114.608 91.5,116C 90,117.5 88.5,119 87,120.5C 86,119.5 85,118.5 84,117.5C 83.2765,120.125 84.2765,121.792 87,122.5C 88.584,122.012 89.7506,121.012 90.5,119.5C 91.4519,121.045 91.7852,122.712 91.5,124.5C 88.1667,124.5 84.8333,124.5 81.5,124.5C 81.2529,121.061 81.5863,117.728 82.5,114.5 Z"/></g>
<g><path style="opacity:1" fill="#44396a" d="M 136.5,124.5 C 123.989,124.829 111.655,124.495 99.5,123.5C 105.491,122.834 111.657,122.5 118,122.5C 124.538,122.504 130.705,123.17 136.5,124.5 Z"/></g>
<g><path style="opacity:1" fill="#b6d2df" d="M 99.5,123.5 C 111.655,124.495 123.989,124.829 136.5,124.5C 123.994,125.825 111.327,125.825 98.5,124.5C 98.6236,123.893 98.9569,123.56 99.5,123.5 Z"/></g>
<g><path style="opacity:1" fill="#544e7b" d="M 80.5,133.5 C 84.5138,133.334 88.5138,133.501 92.5,134C 96.1591,144.675 92.4925,148.675 81.5,146C 79.1601,142.086 78.8268,137.92 80.5,133.5 Z"/></g>
<g><path style="opacity:1" fill="#cef4f9" d="M 82.5,135.5 C 85.5,135.5 88.5,135.5 91.5,135.5C 91.5,138.5 91.5,141.5 91.5,144.5C 88.5,144.5 85.5,144.5 82.5,144.5C 82.5,141.5 82.5,138.5 82.5,135.5 Z"/></g>
<g><path style="opacity:1" fill="#44396a" d="M 136.5,136.5 C 123.989,136.829 111.655,136.495 99.5,135.5C 105.491,134.834 111.657,134.5 118,134.5C 124.538,134.504 130.705,135.17 136.5,136.5 Z"/></g>
<g><path style="opacity:1" fill="#b6d2df" d="M 99.5,135.5 C 111.655,136.495 123.989,136.829 136.5,136.5C 123.994,137.825 111.327,137.825 98.5,136.5C 98.6236,135.893 98.9569,135.56 99.5,135.5 Z"/></g>
<g><path style="opacity:1" fill="#44396a" d="M 136.5,144.5 C 123.989,144.829 111.655,144.495 99.5,143.5C 105.491,142.834 111.657,142.5 118,142.5C 124.538,142.504 130.705,143.17 136.5,144.5 Z"/></g>
<g><path style="opacity:1" fill="#b6d2df" d="M 99.5,143.5 C 111.655,144.495 123.989,144.829 136.5,144.5C 123.994,145.825 111.327,145.825 98.5,144.5C 98.6236,143.893 98.9569,143.56 99.5,143.5 Z"/></g>
</svg>
